<?xml version="1.0" standalone="no"?>
<!DOCTYPE svg PUBLIC "-//W3C//DTD SVG 20010904//EN"
 "http://www.w3.org/TR/2001/REC-SVG-20010904/DTD/svg10.dtd">
<svg version="1.0" xmlns="http://www.w3.org/2000/svg"
 width="512.000000pt" height="512.000000pt" viewBox="0 0 512.000000 512.000000"
 preserveAspectRatio="xMidYMid meet">

<g transform="translate(0.000000,512.000000) scale(0.100000,-0.100000)"
fill="#000000" stroke="none">
<path d="M2623 4915 c-83 -18 -156 -58 -218 -120 -100 -101 -135 -206 -135
-411 l0 -121 -98 -31 c-54 -18 -146 -56 -204 -85 l-106 -54 -238 238 -239 239
-62 -67 c-33 -38 -75 -90 -92 -118 -78 -129 -80 -314 -4 -445 14 -25 73 -93
130 -151 l103 -105 -53 -105 c-29 -57 -66 -145 -81 -194 -15 -50 -29 -96 -31
-102 -3 -10 -80 -13 -340 -13 l-335 0 0 -72 c1 -200 80 -353 230 -441 73 -43
149 -57 301 -57 l136 0 33 -102 c17 -57 55 -149 84 -204 l53 -102 -238 -238
-239 -239 73 -73 c52 -53 93 -83 147 -110 73 -36 78 -37 190 -37 109 0 118 2
184 33 55 26 93 56 181 142 l111 110 106 -54 c58 -30 151 -69 207 -87 l101
-32 0 -335 0 -335 103 6 c158 10 252 50 343 145 91 94 124 205 124 413 l0 116
113 37 c61 20 153 59 202 85 l90 49 241 -239 240 -240 73 77 c155 163 190 342
102 529 -23 50 -56 92 -137 175 l-106 109 51 101 c29 55 67 146 85 202 l34
103 331 3 331 2 0 63 c0 159 -44 281 -134 370 -102 102 -207 137 -413 137
l-122 0 -11 43 c-21 76 -89 241 -124 297 l-34 55 242 243 241 243 -72 69
c-128 120 -214 155 -367 148 -137 -6 -199 -38 -342 -179 l-111 -110 -52 31
c-63 39 -187 92 -281 121 l-70 21 0 334 0 334 -82 -1 c-46 0 -111 -7 -145 -14z
m56 -1110 c147 -16 328 -104 448 -218 254 -240 327 -630 178 -946 -109 -230
-304 -389 -555 -452 -113 -29 -317 -23 -425 11 -286 91 -492 308 -565 594 -43
170 -22 382 55 545 123 259 375 441 653 470 76 8 103 8 211 -4z"/>
<path d="M2469 3282 l-265 -337 123 -3 c109 -2 123 -5 123 -20 -1 -9 -16 -138
-34 -287 -18 -148 -32 -271 -31 -272 1 -2 121 149 267 335 l265 337 -124 3
c-89 2 -123 6 -123 15 0 7 16 136 34 287 19 151 33 276 33 277 -1 1 -122 -150
-268 -335z"/>
<path d="M1045 833 c-121 -81 -226 -120 -367 -138 l-48 -6 0 -155 0 -154 58 0
c83 0 225 32 331 75 l92 36 72 -29 c145 -61 226 -76 402 -77 182 0 262 14 407
72 l88 35 72 -30 c130 -54 221 -73 373 -79 166 -6 290 15 436 73 l89 36 72
-30 c150 -62 226 -76 413 -76 186 0 250 12 407 75 l78 31 72 -30 c111 -46 213
-72 311 -79 l87 -6 0 162 0 161 -47 0 c-108 0 -235 47 -360 131 l-75 51 -67
-45 c-150 -100 -263 -137 -416 -137 -152 0 -288 45 -427 142 l-57 40 -63 -45
c-136 -96 -259 -137 -413 -137 -153 0 -289 45 -426 142 l-56 40 -75 -51 c-140
-95 -251 -131 -409 -131 -153 0 -271 37 -409 130 -30 20 -60 39 -66 43 -6 3
-41 -15 -79 -40z"/>
</g>
</svg>
